<svg width="16" height="16" viewBox="0 0 16 16" fill="none" xmlns="http://www.w3.org/2000/svg">
<path d="M7.99983 12.3429C8.25888 12.3429 8.47618 12.2551 8.65172 12.0795C8.82726 11.904 8.91473 11.687 8.91412 11.4286V8.68571C8.91412 8.42667 8.82635 8.20937 8.6508 8.03383C8.47526 7.85828 8.25827 7.77082 7.99983 7.77143C7.74079 7.77143 7.52349 7.8592 7.34795 8.03474C7.17241 8.21029 7.08494 8.42727 7.08555 8.68571V11.4286C7.08555 11.6876 7.17332 11.9049 7.34886 12.0805C7.52441 12.256 7.7414 12.3435 7.99983 12.3429ZM7.99983 5.94286C8.25888 5.94286 8.47618 5.85508 8.65172 5.67954C8.82726 5.504 8.91473 5.28701 8.91412 5.02857C8.91412 4.76952 8.82635 4.55223 8.6508 4.37668C8.47526 4.20114 8.25827 4.11368 7.99983 4.11428C7.74079 4.11428 7.52349 4.20206 7.34795 4.3776C7.17241 4.55314 7.08494 4.77013 7.08555 5.02857C7.08555 5.28762 7.17332 5.50491 7.34886 5.68046C7.52441 5.856 7.7414 5.94347 7.99983 5.94286ZM2.51412 16C2.01126 16 1.58063 15.8208 1.22223 15.4624C0.863834 15.104 0.684939 14.6737 0.685548 14.1714V5.94286C0.685548 5.65333 0.750463 5.37905 0.880291 5.12C1.01012 4.86095 1.18902 4.64762 1.41698 4.48L6.90269 0.365714C7.22269 0.121905 7.58841 0 7.99983 0C8.41126 0 8.77698 0.121905 9.09698 0.365714L14.5827 4.48C14.8113 4.64762 14.9905 4.86095 15.1203 5.12C15.2501 5.37905 15.3147 5.65333 15.3141 5.94286V14.1714C15.3141 14.6743 15.1349 15.1049 14.7765 15.4633C14.4181 15.8217 13.9878 16.0006 13.4855 16H2.51412Z" fill="#828282"/>
</svg>
