
<svg width="63" height="13" viewBox="0 0 63 13" fill="none" xmlns="http://www.w3.org/2000/svg">
<path d="M0.504 12.5V1.3H5.112C6.104 1.3 6.952 1.46 7.656 1.78C8.37067 2.1 8.92 2.55867 9.304 3.156C9.688 3.75333 9.88 4.46267 9.88 5.284C9.88 6.10533 9.688 6.81467 9.304 7.412C8.92 8.00933 8.37067 8.468 7.656 8.788C6.952 9.108 6.104 9.268 5.112 9.268H1.656L2.584 8.292V12.5H0.504ZM2.584 8.516L1.656 7.508H5.016C5.93333 7.508 6.62133 7.316 7.08 6.932C7.54933 6.53733 7.784 5.988 7.784 5.284C7.784 4.56933 7.54933 4.02 7.08 3.636C6.62133 3.252 5.93333 3.06 5.016 3.06H1.656L2.584 2.036V8.516ZM11.687 12.5V3.956H13.591V6.308L13.367 5.62C13.623 5.044 14.023 4.60667 14.567 4.308C15.1217 4.00933 15.8097 3.86 16.631 3.86V5.764C16.5457 5.74267 16.4657 5.732 16.391 5.732C16.3163 5.72133 16.2417 5.716 16.167 5.716C15.4097 5.716 14.807 5.94 14.359 6.388C13.911 6.82533 13.687 7.48133 13.687 8.356V12.5H11.687ZM22.0895 12.612C21.2148 12.612 20.4362 12.4253 19.7535 12.052C19.0708 11.668 18.5322 11.1453 18.1375 10.484C17.7428 9.82267 17.5455 9.07067 17.5455 8.228C17.5455 7.37467 17.7428 6.62267 18.1375 5.972C18.5322 5.31067 19.0708 4.79333 19.7535 4.42C20.4362 4.04667 21.2148 3.86 22.0895 3.86C22.9748 3.86 23.7588 4.04667 24.4415 4.42C25.1348 4.79333 25.6735 5.30533 26.0575 5.956C26.4522 6.60667 26.6495 7.364 26.6495 8.228C26.6495 9.07067 26.4522 9.82267 26.0575 10.484C25.6735 11.1453 25.1348 11.668 24.4415 12.052C23.7588 12.4253 22.9748 12.612 22.0895 12.612ZM22.0895 10.9C22.5802 10.9 23.0175 10.7933 23.4015 10.58C23.7855 10.3667 24.0842 10.0573 24.2975 9.652C24.5215 9.24667 24.6335 8.772 24.6335 8.228C24.6335 7.67333 24.5215 7.19867 24.2975 6.804C24.0842 6.39867 23.7855 6.08933 23.4015 5.876C23.0175 5.66267 22.5855 5.556 22.1055 5.556C21.6148 5.556 21.1775 5.66267 20.7935 5.876C20.4202 6.08933 20.1215 6.39867 19.8975 6.804C19.6735 7.19867 19.5615 7.67333 19.5615 8.228C19.5615 8.772 19.6735 9.24667 19.8975 9.652C20.1215 10.0573 20.4202 10.3667 20.7935 10.58C21.1775 10.7933 21.6095 10.9 22.0895 10.9Z" fill="#333333"/>
<path d="M28.754 12.5V1.3H30.466L35.362 9.476H34.466L39.282 1.3H40.994L41.01 12.5H39.042L39.026 4.388H39.442L35.346 11.22H34.418L30.258 4.388H30.738V12.5H28.754ZM47.8593 12.612C46.9099 12.612 46.0779 12.4253 45.3633 12.052C44.6593 11.668 44.1099 11.1453 43.7153 10.484C43.3313 9.82267 43.1393 9.07067 43.1393 8.228C43.1393 7.37467 43.3259 6.62267 43.6993 5.972C44.0833 5.31067 44.6059 4.79333 45.2673 4.42C45.9393 4.04667 46.7019 3.86 47.5553 3.86C48.3873 3.86 49.1286 4.04133 49.7793 4.404C50.4299 4.76667 50.9419 5.27867 51.3153 5.94C51.6886 6.60133 51.8753 7.38 51.8753 8.276C51.8753 8.36133 51.8699 8.45733 51.8593 8.564C51.8593 8.67067 51.8539 8.772 51.8433 8.868H44.7233V7.54H50.7873L50.0033 7.956C50.0139 7.46533 49.9126 7.03333 49.6993 6.66C49.4859 6.28667 49.1926 5.99333 48.8193 5.78C48.4566 5.56667 48.0353 5.46 47.5553 5.46C47.0646 5.46 46.6326 5.56667 46.2593 5.78C45.8966 5.99333 45.6086 6.292 45.3953 6.676C45.1926 7.04933 45.0913 7.492 45.0913 8.004V8.324C45.0913 8.836 45.2086 9.28933 45.4433 9.684C45.6779 10.0787 46.0086 10.3827 46.4353 10.596C46.8619 10.8093 47.3526 10.916 47.9073 10.916C48.3873 10.916 48.8193 10.8413 49.2033 10.692C49.5873 10.5427 49.9286 10.308 50.2273 9.988L51.2993 11.22C50.9153 11.668 50.4299 12.0147 49.8433 12.26C49.2673 12.4947 48.6059 12.612 47.8593 12.612ZM57.4124 12.612C56.591 12.612 55.8497 12.4307 55.1884 12.068C54.5377 11.6947 54.0257 11.1827 53.6524 10.532C53.279 9.88133 53.0924 9.11333 53.0924 8.228C53.0924 7.34267 53.279 6.57467 53.6524 5.924C54.0257 5.27333 54.5377 4.76667 55.1884 4.404C55.8497 4.04133 56.591 3.86 57.4124 3.86C58.127 3.86 58.767 4.02 59.3324 4.34C59.8977 4.64933 60.3457 5.124 60.6764 5.764C61.007 6.404 61.1724 7.22533 61.1724 8.228C61.1724 9.22 61.0124 10.0413 60.6924 10.692C60.3724 11.332 59.9297 11.812 59.3644 12.132C58.799 12.452 58.1484 12.612 57.4124 12.612ZM57.6524 10.9C58.1324 10.9 58.559 10.7933 58.9324 10.58C59.3164 10.3667 59.6204 10.0573 59.8444 9.652C60.079 9.24667 60.1964 8.772 60.1964 8.228C60.1964 7.67333 60.079 7.19867 59.8444 6.804C59.6204 6.39867 59.3164 6.08933 58.9324 5.876C58.559 5.66267 58.1324 5.556 57.6524 5.556C57.1724 5.556 56.7404 5.66267 56.3564 5.876C55.983 6.08933 55.679 6.39867 55.4444 6.804C55.2204 7.19867 55.1084 7.67333 55.1084 8.228C55.1084 8.772 55.2204 9.24667 55.4444 9.652C55.679 10.0573 55.983 10.3667 56.3564 10.58C56.7404 10.7933 57.1724 10.9 57.6524 10.9ZM60.2444 12.5V10.484L60.3244 8.212L60.1644 5.94V0.627999H62.1484V12.5H60.2444Z" fill="#0681B4"/>
</svg>
